<?xml version="1.0" encoding="UTF-8" standalone="no"?>
<!DOCTYPE svg PUBLIC "-//W3C//DTD SVG 1.1//EN"
 "http://www.w3.org/Graphics/SVG/1.1/DTD/svg11.dtd">
<!-- Generated by graphviz version 2.38.0 (20140413.2041)
 -->
<!-- Title: controllers_diagram Pages: 1 -->
<svg width="516pt" height="531pt"
 viewBox="0.00 0.00 515.91 531.00" xmlns="http://www.w3.org/2000/svg" xmlns:xlink="http://www.w3.org/1999/xlink">
<g id="graph0" class="graph" transform="scale(1 1) rotate(0) translate(214.217 317.5)">
<title>controllers_diagram</title>
<polygon fill="none" stroke="none" points="-214.217,213.5 -214.217,-317.5 301.688,-317.5 301.688,213.5 -214.217,213.5"/>
<!-- _diagram_info -->
<g id="node1" class="node"><title>_diagram_info</title>
<text text-anchor="start" x="98.3123" y="30.9" font-family="Times,serif" font-size="13.00">Controllers diagram</text>
<text text-anchor="start" x="98.3123" y="43.9" font-family="Times,serif" font-size="13.00">Date: Jan 31 2016 &#45; 19:05</text>
<text text-anchor="start" x="98.3123" y="56.9" font-family="Times,serif" font-size="13.00">Migration version: 20160107215937</text>
<text text-anchor="start" x="98.3123" y="69.9" font-family="Times,serif" font-size="13.00">Generated by RailRoady 1.4.2</text>
<text text-anchor="start" x="98.3123" y="82.9" font-family="Times,serif" font-size="13.00">http://railroady.prestonlee.com</text>
</g>
<!-- ApolloController -->
<g id="node2" class="node"><title>ApolloController</title>
<path fill="none" stroke="black" d="M-198.217,14C-198.217,14 -109.783,14 -109.783,14 -103.783,14 -97.7827,8 -97.7827,2 -97.7827,2 -97.7827,-78 -97.7827,-78 -97.7827,-84 -103.783,-90 -109.783,-90 -109.783,-90 -198.217,-90 -198.217,-90 -204.217,-90 -210.217,-84 -210.217,-78 -210.217,-78 -210.217,2 -210.217,2 -210.217,8 -204.217,14 -198.217,14"/>
<text text-anchor="middle" x="-154" y="-74.8" font-family="Times,serif" font-size="14.00">ApolloController</text>
<polyline fill="none" stroke="black" points="-210.217,-68 -97.7827,-68 "/>
<text text-anchor="start" x="-202.217" y="-52.8" font-family="Times,serif" font-size="14.00">about</text>
<text text-anchor="start" x="-202.217" y="-38.8" font-family="Times,serif" font-size="14.00">landing</text>
<polyline fill="none" stroke="black" points="-210.217,-32 -97.7827,-32 "/>
<polyline fill="none" stroke="black" points="-210.217,-8 -97.7827,-8 "/>
<text text-anchor="start" x="-202.217" y="7.2" font-family="Times,serif" font-size="14.00">_layout</text>
</g>
<!-- ApplicationController -->
<g id="node3" class="node"><title>ApplicationController</title>
<path fill="none" stroke="black" d="M102.179,209C102.179,209 217.821,209 217.821,209 223.821,209 229.821,203 229.821,197 229.821,197 229.821,129 229.821,129 229.821,123 223.821,117 217.821,117 217.821,117 102.179,117 102.179,117 96.1792,117 90.1792,123 90.1792,129 90.1792,129 90.1792,197 90.1792,197 90.1792,203 96.1792,209 102.179,209"/>
<text text-anchor="middle" x="160" y="132.2" font-family="Times,serif" font-size="14.00">ApplicationController</text>
<polyline fill="none" stroke="black" points="90.1792,139 229.821,139 "/>
<polyline fill="none" stroke="black" points="90.1792,163 229.821,163 "/>
<polyline fill="none" stroke="black" points="90.1792,187 229.821,187 "/>
<text text-anchor="start" x="98.1792" y="202.2" font-family="Times,serif" font-size="14.00">_layout</text>
</g>
<!-- PlaylistsController -->
<g id="node4" class="node"><title>PlaylistsController</title>
<path fill="none" stroke="black" d="M102.5,-16C102.5,-16 199.5,-16 199.5,-16 205.5,-16 211.5,-22 211.5,-28 211.5,-28 211.5,-136 211.5,-136 211.5,-142 205.5,-148 199.5,-148 199.5,-148 102.5,-148 102.5,-148 96.5,-148 90.5,-142 90.5,-136 90.5,-136 90.5,-28 90.5,-28 90.5,-22 96.5,-16 102.5,-16"/>
<text text-anchor="middle" x="151" y="-132.8" font-family="Times,serif" font-size="14.00">PlaylistsController</text>
<polyline fill="none" stroke="black" points="90.5,-126 211.5,-126 "/>
<text text-anchor="start" x="98.5" y="-110.8" font-family="Times,serif" font-size="14.00">edit</text>
<text text-anchor="start" x="98.5" y="-96.8" font-family="Times,serif" font-size="14.00">new</text>
<text text-anchor="start" x="98.5" y="-82.8" font-family="Times,serif" font-size="14.00">search</text>
<text text-anchor="start" x="98.5" y="-68.8" font-family="Times,serif" font-size="14.00">show</text>
<polyline fill="none" stroke="black" points="90.5,-62 211.5,-62 "/>
<polyline fill="none" stroke="black" points="90.5,-38 211.5,-38 "/>
<text text-anchor="start" x="98.5" y="-22.8" font-family="Times,serif" font-size="14.00">_layout</text>
</g>
<!-- RegistrationsController -->
<g id="node5" class="node"><title>RegistrationsController</title>
<path fill="none" stroke="black" d="M-77.7139,-121C-77.7139,-121 45.7139,-121 45.7139,-121 51.7139,-121 57.7139,-127 57.7139,-133 57.7139,-133 57.7139,-213 57.7139,-213 57.7139,-219 51.7139,-225 45.7139,-225 45.7139,-225 -77.7139,-225 -77.7139,-225 -83.7139,-225 -89.7139,-219 -89.7139,-213 -89.7139,-213 -89.7139,-133 -89.7139,-133 -89.7139,-127 -83.7139,-121 -77.7139,-121"/>
<text text-anchor="middle" x="-16" y="-209.8" font-family="Times,serif" font-size="14.00">RegistrationsController</text>
<polyline fill="none" stroke="black" points="-89.7139,-203 57.7139,-203 "/>
<polyline fill="none" stroke="black" points="-89.7139,-179 57.7139,-179 "/>
<text text-anchor="start" x="-81.7139" y="-163.8" font-family="Times,serif" font-size="14.00">after_sign_up_path_for</text>
<polyline fill="none" stroke="black" points="-89.7139,-157 57.7139,-157 "/>
<text text-anchor="start" x="-81.7139" y="-141.8" font-family="Times,serif" font-size="14.00">_layout</text>
<text text-anchor="start" x="-81.7139" y="-127.8" font-family="Times,serif" font-size="14.00">sign_up_params</text>
</g>
<!-- RoomsController -->
<g id="node6" class="node"><title>RoomsController</title>
<path fill="none" stroke="black" d="M-47.6104,104C-47.6104,104 41.6104,104 41.6104,104 47.6104,104 53.6104,98 53.6104,92 53.6104,92 53.6104,-72 53.6104,-72 53.6104,-78 47.6104,-84 41.6104,-84 41.6104,-84 -47.6104,-84 -47.6104,-84 -53.6104,-84 -59.6104,-78 -59.6104,-72 -59.6104,-72 -59.6104,92 -59.6104,92 -59.6104,98 -53.6104,104 -47.6104,104"/>
<text text-anchor="middle" x="-3" y="-68.8" font-family="Times,serif" font-size="14.00">RoomsController</text>
<polyline fill="none" stroke="black" points="-59.6104,-62 53.6104,-62 "/>
<text text-anchor="start" x="-51.6104" y="-46.8" font-family="Times,serif" font-size="14.00">create</text>
<text text-anchor="start" x="-51.6104" y="-32.8" font-family="Times,serif" font-size="14.00">edit</text>
<text text-anchor="start" x="-51.6104" y="-18.8" font-family="Times,serif" font-size="14.00">index</text>
<text text-anchor="start" x="-51.6104" y="-4.8" font-family="Times,serif" font-size="14.00">new</text>
<text text-anchor="start" x="-51.6104" y="9.2" font-family="Times,serif" font-size="14.00">room_show</text>
<text text-anchor="start" x="-51.6104" y="23.2" font-family="Times,serif" font-size="14.00">rooms_index</text>
<text text-anchor="start" x="-51.6104" y="37.2" font-family="Times,serif" font-size="14.00">show</text>
<polyline fill="none" stroke="black" points="-59.6104,44 53.6104,44 "/>
<polyline fill="none" stroke="black" points="-59.6104,68 53.6104,68 "/>
<text text-anchor="start" x="-51.6104" y="83.2" font-family="Times,serif" font-size="14.00">_layout</text>
<text text-anchor="start" x="-51.6104" y="97.2" font-family="Times,serif" font-size="14.00">room_params</text>
</g>
<!-- UsersController -->
<g id="node7" class="node"><title>UsersController</title>
<path fill="none" stroke="black" d="M192.286,-181C192.286,-181 273.714,-181 273.714,-181 279.714,-181 285.714,-187 285.714,-193 285.714,-193 285.714,-301 285.714,-301 285.714,-307 279.714,-313 273.714,-313 273.714,-313 192.286,-313 192.286,-313 186.286,-313 180.286,-307 180.286,-301 180.286,-301 180.286,-193 180.286,-193 180.286,-187 186.286,-181 192.286,-181"/>
<text text-anchor="middle" x="233" y="-297.8" font-family="Times,serif" font-size="14.00">UsersController</text>
<polyline fill="none" stroke="black" points="180.286,-291 285.714,-291 "/>
<text text-anchor="start" x="188.286" y="-275.8" font-family="Times,serif" font-size="14.00">edit</text>
<text text-anchor="start" x="188.286" y="-261.8" font-family="Times,serif" font-size="14.00">new</text>
<text text-anchor="start" x="188.286" y="-247.8" font-family="Times,serif" font-size="14.00">show</text>
<text text-anchor="start" x="188.286" y="-233.8" font-family="Times,serif" font-size="14.00">spotify</text>
<polyline fill="none" stroke="black" points="180.286,-227 285.714,-227 "/>
<polyline fill="none" stroke="black" points="180.286,-203 285.714,-203 "/>
<text text-anchor="start" x="188.286" y="-187.8" font-family="Times,serif" font-size="14.00">_layout</text>
</g>
</g>
</svg>
