<?xml version="1.0" encoding="UTF-8" standalone="no"?>
<!DOCTYPE svg PUBLIC "-//W3C//DTD SVG 1.1//EN"
 "http://www.w3.org/Graphics/SVG/1.1/DTD/svg11.dtd">
<!-- Generated by graphviz version 2.38.0 (20140413.2041)
 -->
<!-- Title: models_diagram Pages: 1 -->
<svg width="818pt" height="565pt"
 viewBox="0.00 0.00 818.32 565.00" xmlns="http://www.w3.org/2000/svg" xmlns:xlink="http://www.w3.org/1999/xlink">
<g id="graph0" class="graph" transform="scale(1 1) rotate(0) translate(4 561)">
<title>models_diagram</title>
<polygon fill="none" stroke="none" points="-4,4 -4,-561 814.323,-561 814.323,4 -4,4"/>
<!-- _diagram_info -->
<g id="node1" class="node"><title>_diagram_info</title>
<text text-anchor="start" x="8" y="-451.6" font-family="Times,serif" font-size="13.00">Models diagram</text>
<text text-anchor="start" x="8" y="-438.6" font-family="Times,serif" font-size="13.00">Date: Jan 31 2016 &#45; 19:05</text>
<text text-anchor="start" x="8" y="-425.6" font-family="Times,serif" font-size="13.00">Migration version: 20160107215937</text>
<text text-anchor="start" x="8" y="-412.6" font-family="Times,serif" font-size="13.00">Generated by RailRoady 1.4.2</text>
<text text-anchor="start" x="8" y="-399.6" font-family="Times,serif" font-size="13.00">http://railroady.prestonlee.com</text>
</g>
<!-- Jukebox -->
<g id="node2" class="node"><title>Jukebox</title>
<path fill="none" stroke="black" d="M313.825,-0.5C313.825,-0.5 537.55,-0.5 537.55,-0.5 543.55,-0.5 549.55,-6.5 549.55,-12.5 549.55,-12.5 549.55,-102.5 549.55,-102.5 549.55,-108.5 543.55,-114.5 537.55,-114.5 537.55,-114.5 313.825,-114.5 313.825,-114.5 307.825,-114.5 301.825,-108.5 301.825,-102.5 301.825,-102.5 301.825,-12.5 301.825,-12.5 301.825,-6.5 307.825,-0.5 313.825,-0.5"/>
<text text-anchor="middle" x="425.688" y="-99.3" font-family="Times,serif" font-size="14.00">Jukebox</text>
<polyline fill="none" stroke="black" points="301.825,-92.5 549.55,-92.5 "/>
<text text-anchor="start" x="309.825" y="-77.3" font-family="Times,serif" font-size="14.00">id :integer</text>
<text text-anchor="start" x="309.825" y="-63.3" font-family="Times,serif" font-size="14.00">name :character varying</text>
<text text-anchor="start" x="309.825" y="-49.3" font-family="Times,serif" font-size="14.00">room_id :integer</text>
<text text-anchor="start" x="309.825" y="-35.3" font-family="Times,serif" font-size="14.00">playlist_id :integer</text>
<text text-anchor="start" x="309.825" y="-21.3" font-family="Times,serif" font-size="14.00">created_at :timestamp without time zone</text>
<text text-anchor="start" x="309.825" y="-7.3" font-family="Times,serif" font-size="14.00">updated_at :timestamp without time zone</text>
</g>
<!-- Playlist -->
<g id="node3" class="node"><title>Playlist</title>
<path fill="none" stroke="black" d="M237.825,-372.5C237.825,-372.5 461.55,-372.5 461.55,-372.5 467.55,-372.5 473.55,-378.5 473.55,-384.5 473.55,-384.5 473.55,-474.5 473.55,-474.5 473.55,-480.5 467.55,-486.5 461.55,-486.5 461.55,-486.5 237.825,-486.5 237.825,-486.5 231.825,-486.5 225.825,-480.5 225.825,-474.5 225.825,-474.5 225.825,-384.5 225.825,-384.5 225.825,-378.5 231.825,-372.5 237.825,-372.5"/>
<text text-anchor="middle" x="349.688" y="-471.3" font-family="Times,serif" font-size="14.00">Playlist</text>
<polyline fill="none" stroke="black" points="225.825,-464.5 473.55,-464.5 "/>
<text text-anchor="start" x="233.825" y="-449.3" font-family="Times,serif" font-size="14.00">id :integer</text>
<text text-anchor="start" x="233.825" y="-435.3" font-family="Times,serif" font-size="14.00">name :character varying</text>
<text text-anchor="start" x="233.825" y="-421.3" font-family="Times,serif" font-size="14.00">list :text</text>
<text text-anchor="start" x="233.825" y="-407.3" font-family="Times,serif" font-size="14.00">user_id :integer</text>
<text text-anchor="start" x="233.825" y="-393.3" font-family="Times,serif" font-size="14.00">created_at :timestamp without time zone</text>
<text text-anchor="start" x="233.825" y="-379.3" font-family="Times,serif" font-size="14.00">updated_at :timestamp without time zone</text>
</g>
<!-- Playlist&#45;&gt;Jukebox -->
<g id="edge1" class="edge"><title>Playlist&#45;&gt;Jukebox</title>
<path fill="none" stroke="#292be0" d="M345.483,-364.023C343.748,-306.708 346.131,-221.344 368.688,-151 371.669,-141.705 375.773,-132.387 380.426,-123.437"/>
<ellipse fill="none" stroke="#292be0" cx="345.629" cy="-368.273" rx="4" ry="4"/>
<polygon fill="#292be0" stroke="#292be0" points="380.447,-123.399 389.189,-116.78 382.843,-119.011 385.24,-114.623 385.24,-114.623 385.24,-114.623 382.843,-119.011 381.291,-112.466 380.447,-123.399 380.447,-123.399"/>
</g>
<!-- Room -->
<g id="node4" class="node"><title>Room</title>
<path fill="none" stroke="black" d="M389.825,-151.5C389.825,-151.5 613.55,-151.5 613.55,-151.5 619.55,-151.5 625.55,-157.5 625.55,-163.5 625.55,-163.5 625.55,-253.5 625.55,-253.5 625.55,-259.5 619.55,-265.5 613.55,-265.5 613.55,-265.5 389.825,-265.5 389.825,-265.5 383.825,-265.5 377.825,-259.5 377.825,-253.5 377.825,-253.5 377.825,-163.5 377.825,-163.5 377.825,-157.5 383.825,-151.5 389.825,-151.5"/>
<text text-anchor="middle" x="501.688" y="-250.3" font-family="Times,serif" font-size="14.00">Room</text>
<polyline fill="none" stroke="black" points="377.825,-243.5 625.55,-243.5 "/>
<text text-anchor="start" x="385.825" y="-228.3" font-family="Times,serif" font-size="14.00">id :integer</text>
<text text-anchor="start" x="385.825" y="-214.3" font-family="Times,serif" font-size="14.00">name :character varying</text>
<text text-anchor="start" x="385.825" y="-200.3" font-family="Times,serif" font-size="14.00">status :character varying</text>
<text text-anchor="start" x="385.825" y="-186.3" font-family="Times,serif" font-size="14.00">user_id :integer</text>
<text text-anchor="start" x="385.825" y="-172.3" font-family="Times,serif" font-size="14.00">created_at :timestamp without time zone</text>
<text text-anchor="start" x="385.825" y="-158.3" font-family="Times,serif" font-size="14.00">updated_at :timestamp without time zone</text>
</g>
<!-- Playlist&#45;&gt;Room -->
<g id="edge2" class="edge"><title>Playlist&#45;&gt;Room</title>
<path fill="none" stroke="#70e7b4" d="M394.607,-363.781C414.249,-335.48 437.239,-302.358 456.87,-274.073"/>
<polygon fill="#70e7b4" stroke="#70e7b4" points="394.336,-364.171 384.937,-369.821 391.485,-368.279 388.634,-372.386 388.634,-372.386 388.634,-372.386 391.485,-368.279 392.331,-374.952 394.336,-364.171 394.336,-364.171"/>
<polygon fill="#70e7b4" stroke="#70e7b4" points="456.877,-274.063 466.276,-268.414 459.728,-269.956 462.579,-265.848 462.579,-265.848 462.579,-265.848 459.728,-269.956 458.882,-263.282 456.877,-274.063 456.877,-274.063"/>
</g>
<!-- Room&#45;&gt;Jukebox -->
<g id="edge3" class="edge"><title>Room&#45;&gt;Jukebox</title>
<path fill="none" stroke="#8be644" d="M469.231,-143.868C465.856,-137.25 462.421,-130.516 459.035,-123.879"/>
<ellipse fill="none" stroke="#8be644" cx="471.138" cy="-147.606" rx="4.00002" ry="4.00002"/>
<polygon fill="#8be644" stroke="#8be644" points="459.005,-123.818 458.469,-112.865 456.733,-119.364 454.461,-114.91 454.461,-114.91 454.461,-114.91 456.733,-119.364 450.452,-116.955 459.005,-123.818 459.005,-123.818"/>
</g>
<!-- User -->
<g id="node5" class="node"><title>User</title>
<path fill="none" stroke="black" d="M503.053,-302.5C503.053,-302.5 798.323,-302.5 798.323,-302.5 804.323,-302.5 810.323,-308.5 810.323,-314.5 810.323,-314.5 810.323,-544.5 810.323,-544.5 810.323,-550.5 804.323,-556.5 798.323,-556.5 798.323,-556.5 503.053,-556.5 503.053,-556.5 497.053,-556.5 491.053,-550.5 491.053,-544.5 491.053,-544.5 491.053,-314.5 491.053,-314.5 491.053,-308.5 497.053,-302.5 503.053,-302.5"/>
<text text-anchor="middle" x="650.688" y="-541.3" font-family="Times,serif" font-size="14.00">User</text>
<polyline fill="none" stroke="black" points="491.053,-534.5 810.323,-534.5 "/>
<text text-anchor="start" x="499.053" y="-519.3" font-family="Times,serif" font-size="14.00">id :integer</text>
<text text-anchor="start" x="499.053" y="-505.3" font-family="Times,serif" font-size="14.00">email :character varying</text>
<text text-anchor="start" x="499.053" y="-491.3" font-family="Times,serif" font-size="14.00">encrypted_password :character varying</text>
<text text-anchor="start" x="499.053" y="-477.3" font-family="Times,serif" font-size="14.00">reset_password_token :character varying</text>
<text text-anchor="start" x="499.053" y="-463.3" font-family="Times,serif" font-size="14.00">reset_password_sent_at :timestamp without time zone</text>
<text text-anchor="start" x="499.053" y="-449.3" font-family="Times,serif" font-size="14.00">remember_created_at :timestamp without time zone</text>
<text text-anchor="start" x="499.053" y="-435.3" font-family="Times,serif" font-size="14.00">sign_in_count :integer</text>
<text text-anchor="start" x="499.053" y="-421.3" font-family="Times,serif" font-size="14.00">current_sign_in_at :timestamp without time zone</text>
<text text-anchor="start" x="499.053" y="-407.3" font-family="Times,serif" font-size="14.00">last_sign_in_at :timestamp without time zone</text>
<text text-anchor="start" x="499.053" y="-393.3" font-family="Times,serif" font-size="14.00">current_sign_in_ip :inet</text>
<text text-anchor="start" x="499.053" y="-379.3" font-family="Times,serif" font-size="14.00">last_sign_in_ip :inet</text>
<text text-anchor="start" x="499.053" y="-365.3" font-family="Times,serif" font-size="14.00">created_at :timestamp without time zone</text>
<text text-anchor="start" x="499.053" y="-351.3" font-family="Times,serif" font-size="14.00">updated_at :timestamp without time zone</text>
<text text-anchor="start" x="499.053" y="-337.3" font-family="Times,serif" font-size="14.00">first_name :character varying</text>
<text text-anchor="start" x="499.053" y="-323.3" font-family="Times,serif" font-size="14.00">last_name :character varying</text>
<text text-anchor="start" x="499.053" y="-309.3" font-family="Times,serif" font-size="14.00">rspot :text</text>
</g>
<!-- User&#45;&gt;Room -->
<g id="edge4" class="edge"><title>User&#45;&gt;Room</title>
<path fill="none" stroke="#21f0e9" d="M560.193,-295.491C555.209,-288.165 550.325,-280.987 545.637,-274.096"/>
<ellipse fill="none" stroke="#21f0e9" cx="562.627" cy="-299.069" rx="4.00002" ry="4.00002"/>
<polygon fill="#21f0e9" stroke="#21f0e9" points="545.435,-273.799 543.53,-263 542.622,-269.665 539.81,-265.531 539.81,-265.531 539.81,-265.531 542.622,-269.665 536.089,-268.063 545.435,-273.799 545.435,-273.799"/>
</g>
</g>
</svg>
