<?xml version="1.0" encoding="UTF-8" standalone="no"?>
<!DOCTYPE svg PUBLIC "-//W3C//DTD SVG 1.1//EN"
 "http://www.w3.org/Graphics/SVG/1.1/DTD/svg11.dtd">
<!-- Generated by graphviz version 2.38.0 (20140413.2041)
 -->
<!-- Title: models_diagram Pages: 1 -->
<svg width="379pt" height="225pt"
 viewBox="0.00 0.00 378.69 225.00" xmlns="http://www.w3.org/2000/svg" xmlns:xlink="http://www.w3.org/1999/xlink">
<g id="graph0" class="graph" transform="scale(1 1) rotate(0) translate(4 221)">
<title>models_diagram</title>
<polygon fill="none" stroke="none" points="-4,4 -4,-221 374.688,-221 374.688,4 -4,4"/>
<!-- _diagram_info -->
<g id="node1" class="node"><title>_diagram_info</title>
<text text-anchor="start" x="8" y="-202.6" font-family="Times,serif" font-size="13.00">Models diagram</text>
<text text-anchor="start" x="8" y="-189.6" font-family="Times,serif" font-size="13.00">Date: Jan 31 2016 &#45; 19:05</text>
<text text-anchor="start" x="8" y="-176.6" font-family="Times,serif" font-size="13.00">Migration version: 20160107215937</text>
<text text-anchor="start" x="8" y="-163.6" font-family="Times,serif" font-size="13.00">Generated by RailRoady 1.4.2</text>
<text text-anchor="start" x="8" y="-150.6" font-family="Times,serif" font-size="13.00">http://railroady.prestonlee.com</text>
</g>
<!-- Jukebox -->
<g id="node2" class="node"><title>Jukebox</title>
<ellipse fill="none" stroke="black" cx="291.688" cy="-18" rx="39.6645" ry="18"/>
<text text-anchor="middle" x="291.688" y="-13.8" font-family="Times,serif" font-size="14.00">Jukebox</text>
</g>
<!-- Playlist -->
<g id="node3" class="node"><title>Playlist</title>
<ellipse fill="none" stroke="black" cx="261.688" cy="-180.5" rx="36.7836" ry="18"/>
<text text-anchor="middle" x="261.688" y="-176.3" font-family="Times,serif" font-size="14.00">Playlist</text>
</g>
<!-- Playlist&#45;&gt;Jukebox -->
<g id="edge1" class="edge"><title>Playlist&#45;&gt;Jukebox</title>
<path fill="none" stroke="#7084bf" d="M265.933,-154.248C269.651,-132.439 275.29,-100.097 280.688,-72 282.308,-63.5644 284.174,-54.3958 285.903,-46.0932"/>
<ellipse fill="none" stroke="#7084bf" cx="265.228" cy="-158.399" rx="4.00001" ry="4.00001"/>
<polygon fill="#7084bf" stroke="#7084bf" points="285.934,-45.946 292.395,-37.0859 286.963,-41.0529 287.992,-36.1599 287.992,-36.1599 287.992,-36.1599 286.963,-41.0529 283.588,-35.234 285.934,-45.946 285.934,-45.946"/>
</g>
<!-- Room -->
<g id="node4" class="node"><title>Room</title>
<ellipse fill="none" stroke="black" cx="321.688" cy="-90" rx="31.9567" ry="18"/>
<text text-anchor="middle" x="321.688" y="-85.8" font-family="Times,serif" font-size="14.00">Room</text>
</g>
<!-- Playlist&#45;&gt;Room -->
<g id="edge2" class="edge"><title>Playlist&#45;&gt;Room</title>
<path fill="none" stroke="#617e02" d="M278.424,-154.814C286.74,-142.547 296.759,-127.77 305.06,-115.525"/>
<polygon fill="#617e02" stroke="#617e02" points="278.304,-154.991 268.968,-160.743 275.498,-159.129 272.693,-163.268 272.693,-163.268 272.693,-163.268 275.498,-159.129 276.417,-165.793 278.304,-154.991 278.304,-154.991"/>
<polygon fill="#617e02" stroke="#617e02" points="305.141,-115.406 314.477,-109.655 307.947,-111.268 310.753,-107.129 310.753,-107.129 310.753,-107.129 307.947,-111.268 307.028,-104.604 305.141,-115.406 305.141,-115.406"/>
</g>
<!-- Room&#45;&gt;Jukebox -->
<g id="edge3" class="edge"><title>Room&#45;&gt;Jukebox</title>
<path fill="none" stroke="#2ac825" d="M311.307,-64.7779C308.635,-58.544 305.747,-51.8046 303.029,-45.4634"/>
<ellipse fill="none" stroke="#2ac825" cx="313.002" cy="-68.7344" rx="4.00002" ry="4.00002"/>
<polygon fill="#2ac825" stroke="#2ac825" points="302.894,-45.1477 303.091,-34.1835 300.924,-40.5519 298.955,-35.9562 298.955,-35.9562 298.955,-35.9562 300.924,-40.5519 294.819,-37.7289 302.894,-45.1477 302.894,-45.1477"/>
</g>
<!-- User -->
<g id="node5" class="node"><title>User</title>
<ellipse fill="none" stroke="black" cx="343.688" cy="-180.5" rx="27" ry="18"/>
<text text-anchor="middle" x="343.688" y="-176.3" font-family="Times,serif" font-size="14.00">User</text>
</g>
<!-- User&#45;&gt;Room -->
<g id="edge4" class="edge"><title>User&#45;&gt;Room</title>
<path fill="none" stroke="#2db7bd" d="M337.499,-154.603C334.668,-143.215 331.307,-129.696 328.414,-118.057"/>
<ellipse fill="none" stroke="#2db7bd" cx="338.481" cy="-158.554" rx="4.00001" ry="4.00001"/>
<polygon fill="#2db7bd" stroke="#2db7bd" points="328.329,-117.716 330.284,-106.926 327.123,-112.864 325.917,-108.011 325.917,-108.011 325.917,-108.011 327.123,-112.864 321.549,-109.097 328.329,-117.716 328.329,-117.716"/>
</g>
</g>
</svg>
